<mxfile host="app.diagrams.net" agent="Mozilla/5.0 (Windows NT 10.0; Win64; x64) AppleWebKit/537.36 (KHTML, like Gecko) Chrome/134.0.0.0 Safari/537.36 Edg/134.0.0.0" version="26.1.0">
  <diagram name="第 1 页" id="6lDCXm_uTLjBW1uI_MFd">
    <mxGraphModel dx="2426" dy="907" grid="1" gridSize="10" guides="1" tooltips="1" connect="1" arrows="1" fold="1" page="1" pageScale="1" pageWidth="827" pageHeight="1169" math="0" shadow="0">
      <root>
        <mxCell id="0" />
        <mxCell id="1" parent="0" />
        <mxCell id="JcJDtZIdfet0dapsfC1r-50" value="" style="rounded=0;whiteSpace=wrap;html=1;fillColor=#f5f5f5;fontColor=#333333;strokeColor=none;" vertex="1" parent="1">
          <mxGeometry x="-60" y="240" width="1140" height="300" as="geometry" />
        </mxCell>
        <mxCell id="JcJDtZIdfet0dapsfC1r-26" value="" style="rounded=0;whiteSpace=wrap;html=1;strokeColor=none;" vertex="1" parent="1">
          <mxGeometry x="-40" y="330" width="280" height="189" as="geometry" />
        </mxCell>
        <mxCell id="JcJDtZIdfet0dapsfC1r-16" value="" style="rounded=0;whiteSpace=wrap;html=1;dashed=1;dashPattern=8 8;" vertex="1" parent="1">
          <mxGeometry x="-10" y="362" width="220" height="110" as="geometry" />
        </mxCell>
        <mxCell id="JcJDtZIdfet0dapsfC1r-3" value="" style="sketch=0;outlineConnect=0;dashed=0;verticalLabelPosition=bottom;verticalAlign=top;align=center;html=1;fontSize=12;fontStyle=0;aspect=fixed;pointerEvents=1;shape=mxgraph.aws4.sagemaker_model;fillColor=#647687;strokeColor=#314354;fontColor=#ffffff;" vertex="1" parent="1">
          <mxGeometry x="130" y="388" width="54" height="54" as="geometry" />
        </mxCell>
        <mxCell id="JcJDtZIdfet0dapsfC1r-4" value="" style="sketch=0;outlineConnect=0;fillColor=#647687;strokeColor=#314354;dashed=0;verticalLabelPosition=bottom;verticalAlign=top;align=center;html=1;fontSize=12;fontStyle=0;aspect=fixed;pointerEvents=1;shape=mxgraph.aws4.source_code;fontColor=#ffffff;" vertex="1" parent="1">
          <mxGeometry x="16.619999999999997" y="388" width="39.46" height="54" as="geometry" />
        </mxCell>
        <mxCell id="JcJDtZIdfet0dapsfC1r-11" value="" style="endArrow=classic;html=1;rounded=0;" edge="1" parent="1">
          <mxGeometry width="50" height="50" relative="1" as="geometry">
            <mxPoint x="70" y="414.5" as="sourcePoint" />
            <mxPoint x="110" y="415" as="targetPoint" />
          </mxGeometry>
        </mxCell>
        <mxCell id="JcJDtZIdfet0dapsfC1r-27" value="dev" style="rounded=0;whiteSpace=wrap;html=1;fillColor=#647687;fontColor=#ffffff;strokeColor=none;" vertex="1" parent="1">
          <mxGeometry x="-40" y="489" width="60" height="30" as="geometry" />
        </mxCell>
        <mxCell id="JcJDtZIdfet0dapsfC1r-38" value="" style="rounded=0;whiteSpace=wrap;html=1;strokeColor=none;" vertex="1" parent="1">
          <mxGeometry x="320" y="330" width="280" height="189" as="geometry" />
        </mxCell>
        <mxCell id="JcJDtZIdfet0dapsfC1r-39" value="" style="rounded=0;whiteSpace=wrap;html=1;dashed=1;dashPattern=8 8;" vertex="1" parent="1">
          <mxGeometry x="350" y="362" width="220" height="110" as="geometry" />
        </mxCell>
        <mxCell id="JcJDtZIdfet0dapsfC1r-40" value="" style="sketch=0;outlineConnect=0;dashed=0;verticalLabelPosition=bottom;verticalAlign=top;align=center;html=1;fontSize=12;fontStyle=0;aspect=fixed;pointerEvents=1;shape=mxgraph.aws4.sagemaker_model;fillColor=#EA6B66;strokeColor=#b85450;" vertex="1" parent="1">
          <mxGeometry x="490" y="388" width="54" height="54" as="geometry" />
        </mxCell>
        <mxCell id="JcJDtZIdfet0dapsfC1r-41" value="" style="sketch=0;outlineConnect=0;fillColor=#EA6B66;strokeColor=#b85450;dashed=0;verticalLabelPosition=bottom;verticalAlign=top;align=center;html=1;fontSize=12;fontStyle=0;aspect=fixed;pointerEvents=1;shape=mxgraph.aws4.source_code;" vertex="1" parent="1">
          <mxGeometry x="376.62" y="388" width="39.46" height="54" as="geometry" />
        </mxCell>
        <mxCell id="JcJDtZIdfet0dapsfC1r-42" value="" style="endArrow=classic;html=1;rounded=0;" edge="1" parent="1">
          <mxGeometry width="50" height="50" relative="1" as="geometry">
            <mxPoint x="430" y="414.5" as="sourcePoint" />
            <mxPoint x="470" y="415" as="targetPoint" />
          </mxGeometry>
        </mxCell>
        <mxCell id="JcJDtZIdfet0dapsfC1r-43" value="qa" style="rounded=0;whiteSpace=wrap;html=1;fillColor=#EA6B66;strokeColor=none;fontColor=#FFFFFF;" vertex="1" parent="1">
          <mxGeometry x="320" y="489" width="60" height="30" as="geometry" />
        </mxCell>
        <mxCell id="JcJDtZIdfet0dapsfC1r-44" value="" style="rounded=0;whiteSpace=wrap;html=1;strokeColor=none;" vertex="1" parent="1">
          <mxGeometry x="680" y="330" width="280" height="189" as="geometry" />
        </mxCell>
        <mxCell id="JcJDtZIdfet0dapsfC1r-45" value="" style="rounded=0;whiteSpace=wrap;html=1;dashed=1;dashPattern=8 8;" vertex="1" parent="1">
          <mxGeometry x="710" y="362" width="220" height="110" as="geometry" />
        </mxCell>
        <mxCell id="JcJDtZIdfet0dapsfC1r-46" value="" style="sketch=0;outlineConnect=0;dashed=0;verticalLabelPosition=bottom;verticalAlign=top;align=center;html=1;fontSize=12;fontStyle=0;aspect=fixed;pointerEvents=1;shape=mxgraph.aws4.sagemaker_model;fillColor=#97D077;strokeColor=#82b366;" vertex="1" parent="1">
          <mxGeometry x="850" y="388" width="54" height="54" as="geometry" />
        </mxCell>
        <mxCell id="JcJDtZIdfet0dapsfC1r-47" value="" style="sketch=0;outlineConnect=0;fillColor=#97D077;strokeColor=#82b366;dashed=0;verticalLabelPosition=bottom;verticalAlign=top;align=center;html=1;fontSize=12;fontStyle=0;aspect=fixed;pointerEvents=1;shape=mxgraph.aws4.source_code;" vertex="1" parent="1">
          <mxGeometry x="736.62" y="388" width="39.46" height="54" as="geometry" />
        </mxCell>
        <mxCell id="JcJDtZIdfet0dapsfC1r-48" value="" style="endArrow=classic;html=1;rounded=0;" edge="1" parent="1">
          <mxGeometry width="50" height="50" relative="1" as="geometry">
            <mxPoint x="790" y="414.5" as="sourcePoint" />
            <mxPoint x="830" y="415" as="targetPoint" />
          </mxGeometry>
        </mxCell>
        <mxCell id="JcJDtZIdfet0dapsfC1r-49" value="prod" style="rounded=0;whiteSpace=wrap;html=1;fillColor=#97D077;strokeColor=none;fontColor=#FFFFFF;" vertex="1" parent="1">
          <mxGeometry x="680" y="489" width="60" height="30" as="geometry" />
        </mxCell>
        <mxCell id="JcJDtZIdfet0dapsfC1r-51" value="部署代码" style="text;strokeColor=none;fillColor=none;html=1;fontSize=24;fontStyle=1;verticalAlign=middle;align=center;fontColor=#647687;" vertex="1" parent="1">
          <mxGeometry x="-30" y="240" width="100" height="40" as="geometry" />
        </mxCell>
        <mxCell id="JcJDtZIdfet0dapsfC1r-57" value="" style="endArrow=classic;html=1;rounded=0;" edge="1" parent="1">
          <mxGeometry width="50" height="50" relative="1" as="geometry">
            <mxPoint x="90" y="260" as="sourcePoint" />
            <mxPoint x="960" y="260" as="targetPoint" />
          </mxGeometry>
        </mxCell>
        <mxCell id="JcJDtZIdfet0dapsfC1r-58" value="" style="edgeStyle=elbowEdgeStyle;elbow=vertical;endArrow=classic;html=1;curved=0;rounded=0;endSize=8;startSize=8;entryX=0.25;entryY=0;entryDx=0;entryDy=0;dashed=1;dashPattern=8 8;exitX=0.2;exitY=0.018;exitDx=0;exitDy=0;exitPerimeter=0;" edge="1" parent="1" source="JcJDtZIdfet0dapsfC1r-16" target="JcJDtZIdfet0dapsfC1r-39">
          <mxGeometry width="50" height="50" relative="1" as="geometry">
            <mxPoint x="80" y="350" as="sourcePoint" />
            <mxPoint x="130" y="300" as="targetPoint" />
            <Array as="points">
              <mxPoint x="240" y="310" />
            </Array>
          </mxGeometry>
        </mxCell>
        <mxCell id="JcJDtZIdfet0dapsfC1r-59" value="" style="edgeStyle=elbowEdgeStyle;elbow=vertical;endArrow=classic;html=1;curved=0;rounded=0;endSize=8;startSize=8;entryX=0.25;entryY=0;entryDx=0;entryDy=0;dashed=1;dashPattern=8 8;exitX=0.303;exitY=0.018;exitDx=0;exitDy=0;exitPerimeter=0;" edge="1" parent="1" source="JcJDtZIdfet0dapsfC1r-39" target="JcJDtZIdfet0dapsfC1r-45">
          <mxGeometry width="50" height="50" relative="1" as="geometry">
            <mxPoint x="417" y="350" as="sourcePoint" />
            <mxPoint x="550" y="300" as="targetPoint" />
            <Array as="points">
              <mxPoint x="530" y="310" />
            </Array>
          </mxGeometry>
        </mxCell>
        <mxCell id="JcJDtZIdfet0dapsfC1r-60" value="" style="sketch=0;outlineConnect=0;fillColor=#647687;strokeColor=#314354;dashed=0;verticalLabelPosition=bottom;verticalAlign=top;align=center;html=1;fontSize=12;fontStyle=0;aspect=fixed;pointerEvents=1;shape=mxgraph.aws4.source_code;fontColor=#ffffff;" vertex="1" parent="1">
          <mxGeometry x="982" y="451.25" width="21.74" height="29.75" as="geometry" />
        </mxCell>
        <mxCell id="JcJDtZIdfet0dapsfC1r-61" value="" style="sketch=0;outlineConnect=0;dashed=0;verticalLabelPosition=bottom;verticalAlign=top;align=center;html=1;fontSize=12;fontStyle=0;aspect=fixed;pointerEvents=1;shape=mxgraph.aws4.sagemaker_model;fillColor=#647687;strokeColor=#314354;fontColor=#ffffff;" vertex="1" parent="1">
          <mxGeometry x="980" y="493" width="26" height="26" as="geometry" />
        </mxCell>
        <mxCell id="JcJDtZIdfet0dapsfC1r-62" value="&lt;font style=&quot;font-size: 12px;&quot;&gt;训练代码&lt;/font&gt;" style="text;strokeColor=none;fillColor=none;html=1;fontSize=24;fontStyle=1;verticalAlign=middle;align=center;fontColor=#647687;" vertex="1" parent="1">
          <mxGeometry x="1007" y="451.75" width="60" height="29.25" as="geometry" />
        </mxCell>
        <mxCell id="JcJDtZIdfet0dapsfC1r-63" value="模型" style="text;strokeColor=none;fillColor=none;html=1;fontSize=12;fontStyle=1;verticalAlign=middle;align=center;fontColor=#647687;" vertex="1" parent="1">
          <mxGeometry x="1006" y="493" width="58.26" height="26" as="geometry" />
        </mxCell>
        <mxCell id="JcJDtZIdfet0dapsfC1r-64" value="" style="rounded=0;whiteSpace=wrap;html=1;fillColor=#f5f5f5;fontColor=#333333;strokeColor=none;" vertex="1" parent="1">
          <mxGeometry x="-60" y="1000" width="1140" height="450" as="geometry" />
        </mxCell>
        <mxCell id="JcJDtZIdfet0dapsfC1r-65" value="" style="rounded=0;whiteSpace=wrap;html=1;strokeColor=none;" vertex="1" parent="1">
          <mxGeometry x="-40" y="1090" width="373" height="189" as="geometry" />
        </mxCell>
        <mxCell id="JcJDtZIdfet0dapsfC1r-66" value="" style="rounded=0;whiteSpace=wrap;html=1;dashed=1;dashPattern=8 8;" vertex="1" parent="1">
          <mxGeometry x="-10" y="1170" width="210" height="70" as="geometry" />
        </mxCell>
        <mxCell id="JcJDtZIdfet0dapsfC1r-67" value="" style="sketch=0;outlineConnect=0;dashed=0;verticalLabelPosition=bottom;verticalAlign=top;align=center;html=1;fontSize=12;fontStyle=0;aspect=fixed;pointerEvents=1;shape=mxgraph.aws4.sagemaker_model;fillColor=#647687;strokeColor=#314354;fontColor=#ffffff;" vertex="1" parent="1">
          <mxGeometry x="130" y="1177" width="54" height="54" as="geometry" />
        </mxCell>
        <mxCell id="JcJDtZIdfet0dapsfC1r-68" value="" style="sketch=0;outlineConnect=0;fillColor=#647687;strokeColor=#314354;dashed=0;verticalLabelPosition=bottom;verticalAlign=top;align=center;html=1;fontSize=12;fontStyle=0;aspect=fixed;pointerEvents=1;shape=mxgraph.aws4.source_code;fontColor=#ffffff;" vertex="1" parent="1">
          <mxGeometry x="10.000000000000014" y="1175" width="39.46" height="54" as="geometry" />
        </mxCell>
        <mxCell id="JcJDtZIdfet0dapsfC1r-69" value="" style="endArrow=classic;html=1;rounded=0;" edge="1" parent="1">
          <mxGeometry width="50" height="50" relative="1" as="geometry">
            <mxPoint x="70" y="1203.5" as="sourcePoint" />
            <mxPoint x="110" y="1204" as="targetPoint" />
          </mxGeometry>
        </mxCell>
        <mxCell id="JcJDtZIdfet0dapsfC1r-70" value="dev" style="rounded=0;whiteSpace=wrap;html=1;fillColor=#647687;fontColor=#ffffff;strokeColor=none;" vertex="1" parent="1">
          <mxGeometry x="-40" y="1249" width="60" height="30" as="geometry" />
        </mxCell>
        <mxCell id="JcJDtZIdfet0dapsfC1r-71" value="" style="rounded=0;whiteSpace=wrap;html=1;strokeColor=none;" vertex="1" parent="1">
          <mxGeometry x="383" y="1090" width="260" height="189" as="geometry" />
        </mxCell>
        <mxCell id="JcJDtZIdfet0dapsfC1r-72" value="" style="rounded=0;whiteSpace=wrap;html=1;dashed=1;dashPattern=8 8;" vertex="1" parent="1">
          <mxGeometry x="423" y="1122" width="190" height="110" as="geometry" />
        </mxCell>
        <mxCell id="JcJDtZIdfet0dapsfC1r-76" value="qa" style="rounded=0;whiteSpace=wrap;html=1;fillColor=#EA6B66;strokeColor=none;fontColor=#FFFFFF;" vertex="1" parent="1">
          <mxGeometry x="383" y="1249" width="60" height="30" as="geometry" />
        </mxCell>
        <mxCell id="JcJDtZIdfet0dapsfC1r-83" value="部署镜像" style="text;strokeColor=none;fillColor=none;html=1;fontSize=24;fontStyle=1;verticalAlign=middle;align=center;fontColor=#647687;" vertex="1" parent="1">
          <mxGeometry x="-30" y="1000" width="100" height="40" as="geometry" />
        </mxCell>
        <mxCell id="JcJDtZIdfet0dapsfC1r-84" value="" style="endArrow=classic;html=1;rounded=0;" edge="1" parent="1">
          <mxGeometry width="50" height="50" relative="1" as="geometry">
            <mxPoint x="90" y="1020" as="sourcePoint" />
            <mxPoint x="953" y="1020" as="targetPoint" />
          </mxGeometry>
        </mxCell>
        <mxCell id="JcJDtZIdfet0dapsfC1r-85" value="" style="edgeStyle=elbowEdgeStyle;elbow=vertical;endArrow=classic;html=1;curved=0;rounded=0;endSize=8;startSize=8;dashed=1;dashPattern=8 8;" edge="1" parent="1" source="JcJDtZIdfet0dapsfC1r-148">
          <mxGeometry width="50" height="50" relative="1" as="geometry">
            <mxPoint x="201" y="1097" as="sourcePoint" />
            <mxPoint x="536.8049999999998" y="1154.1130802474752" as="targetPoint" />
            <Array as="points">
              <mxPoint x="400" y="1075" />
            </Array>
          </mxGeometry>
        </mxCell>
        <mxCell id="JcJDtZIdfet0dapsfC1r-87" value="" style="sketch=0;outlineConnect=0;fillColor=#647687;strokeColor=#314354;dashed=0;verticalLabelPosition=bottom;verticalAlign=top;align=center;html=1;fontSize=12;fontStyle=0;aspect=fixed;pointerEvents=1;shape=mxgraph.aws4.source_code;fontColor=#ffffff;" vertex="1" parent="1">
          <mxGeometry x="984.49" y="1238.25" width="21.74" height="29.75" as="geometry" />
        </mxCell>
        <mxCell id="JcJDtZIdfet0dapsfC1r-88" value="" style="sketch=0;outlineConnect=0;dashed=0;verticalLabelPosition=bottom;verticalAlign=top;align=center;html=1;fontSize=12;fontStyle=0;aspect=fixed;pointerEvents=1;shape=mxgraph.aws4.sagemaker_model;fillColor=#647687;strokeColor=#314354;fontColor=#ffffff;" vertex="1" parent="1">
          <mxGeometry x="982.49" y="1278" width="26" height="26" as="geometry" />
        </mxCell>
        <mxCell id="JcJDtZIdfet0dapsfC1r-89" value="&lt;font style=&quot;font-size: 12px;&quot;&gt;训练代码&lt;/font&gt;" style="text;strokeColor=none;fillColor=none;html=1;fontSize=24;fontStyle=1;verticalAlign=middle;align=center;fontColor=#647687;" vertex="1" parent="1">
          <mxGeometry x="1008.49" y="1236.75" width="60" height="29.25" as="geometry" />
        </mxCell>
        <mxCell id="JcJDtZIdfet0dapsfC1r-90" value="模型" style="text;strokeColor=none;fillColor=none;html=1;fontSize=12;fontStyle=1;verticalAlign=middle;align=center;fontColor=#647687;" vertex="1" parent="1">
          <mxGeometry x="1008.49" y="1280" width="58.26" height="26" as="geometry" />
        </mxCell>
        <mxCell id="JcJDtZIdfet0dapsfC1r-97" value="" style="endArrow=classic;html=1;rounded=0;" edge="1" parent="1">
          <mxGeometry width="50" height="50" relative="1" as="geometry">
            <mxPoint x="210" y="1203.5000000000002" as="sourcePoint" />
            <mxPoint x="250" y="1204.0000000000002" as="targetPoint" />
          </mxGeometry>
        </mxCell>
        <mxCell id="JcJDtZIdfet0dapsfC1r-98" value="" style="rounded=0;whiteSpace=wrap;html=1;strokeColor=none;" vertex="1" parent="1">
          <mxGeometry x="693" y="1092" width="260" height="189" as="geometry" />
        </mxCell>
        <mxCell id="JcJDtZIdfet0dapsfC1r-99" value="" style="rounded=0;whiteSpace=wrap;html=1;dashed=1;dashPattern=8 8;" vertex="1" parent="1">
          <mxGeometry x="733" y="1124" width="190" height="110" as="geometry" />
        </mxCell>
        <mxCell id="JcJDtZIdfet0dapsfC1r-104" value="" style="edgeStyle=elbowEdgeStyle;elbow=vertical;endArrow=classic;html=1;curved=0;rounded=0;endSize=8;startSize=8;dashed=1;dashPattern=8 8;" edge="1" parent="1" source="JcJDtZIdfet0dapsfC1r-149" target="JcJDtZIdfet0dapsfC1r-150">
          <mxGeometry width="50" height="50" relative="1" as="geometry">
            <mxPoint x="550" y="1140" as="sourcePoint" />
            <mxPoint x="820" y="1122" as="targetPoint" />
            <Array as="points">
              <mxPoint x="683" y="1075" />
            </Array>
          </mxGeometry>
        </mxCell>
        <mxCell id="JcJDtZIdfet0dapsfC1r-106" value="prod" style="rounded=0;whiteSpace=wrap;html=1;fillColor=#97D077;strokeColor=none;fontColor=#FFFFFF;" vertex="1" parent="1">
          <mxGeometry x="693" y="1251" width="60" height="30" as="geometry" />
        </mxCell>
        <mxCell id="JcJDtZIdfet0dapsfC1r-112" value="" style="rounded=0;whiteSpace=wrap;html=1;fillColor=#f5f5f5;fontColor=#333333;strokeColor=none;" vertex="1" parent="1">
          <mxGeometry x="-60" y="600" width="1140" height="300" as="geometry" />
        </mxCell>
        <mxCell id="JcJDtZIdfet0dapsfC1r-113" value="" style="rounded=0;whiteSpace=wrap;html=1;strokeColor=none;" vertex="1" parent="1">
          <mxGeometry x="-40" y="690" width="280" height="189" as="geometry" />
        </mxCell>
        <mxCell id="JcJDtZIdfet0dapsfC1r-114" value="" style="rounded=0;whiteSpace=wrap;html=1;dashed=1;dashPattern=8 8;" vertex="1" parent="1">
          <mxGeometry x="-10" y="722" width="220" height="110" as="geometry" />
        </mxCell>
        <mxCell id="JcJDtZIdfet0dapsfC1r-115" value="" style="sketch=0;outlineConnect=0;dashed=0;verticalLabelPosition=bottom;verticalAlign=top;align=center;html=1;fontSize=12;fontStyle=0;aspect=fixed;pointerEvents=1;shape=mxgraph.aws4.sagemaker_model;fillColor=#647687;strokeColor=#314354;fontColor=#ffffff;" vertex="1" parent="1">
          <mxGeometry x="130" y="748" width="54" height="54" as="geometry" />
        </mxCell>
        <mxCell id="JcJDtZIdfet0dapsfC1r-116" value="" style="sketch=0;outlineConnect=0;fillColor=#647687;strokeColor=#314354;dashed=0;verticalLabelPosition=bottom;verticalAlign=top;align=center;html=1;fontSize=12;fontStyle=0;aspect=fixed;pointerEvents=1;shape=mxgraph.aws4.source_code;fontColor=#ffffff;" vertex="1" parent="1">
          <mxGeometry x="16.619999999999997" y="748" width="39.46" height="54" as="geometry" />
        </mxCell>
        <mxCell id="JcJDtZIdfet0dapsfC1r-117" value="" style="endArrow=classic;html=1;rounded=0;" edge="1" parent="1">
          <mxGeometry width="50" height="50" relative="1" as="geometry">
            <mxPoint x="70" y="774.5" as="sourcePoint" />
            <mxPoint x="110" y="775" as="targetPoint" />
          </mxGeometry>
        </mxCell>
        <mxCell id="JcJDtZIdfet0dapsfC1r-118" value="dev" style="rounded=0;whiteSpace=wrap;html=1;fillColor=#647687;fontColor=#ffffff;strokeColor=none;" vertex="1" parent="1">
          <mxGeometry x="-40" y="849" width="60" height="30" as="geometry" />
        </mxCell>
        <mxCell id="JcJDtZIdfet0dapsfC1r-119" value="" style="rounded=0;whiteSpace=wrap;html=1;strokeColor=none;" vertex="1" parent="1">
          <mxGeometry x="320" y="690" width="280" height="189" as="geometry" />
        </mxCell>
        <mxCell id="JcJDtZIdfet0dapsfC1r-120" value="" style="rounded=0;whiteSpace=wrap;html=1;dashed=1;dashPattern=8 8;" vertex="1" parent="1">
          <mxGeometry x="350" y="722" width="220" height="110" as="geometry" />
        </mxCell>
        <mxCell id="JcJDtZIdfet0dapsfC1r-121" value="" style="sketch=0;outlineConnect=0;dashed=0;verticalLabelPosition=bottom;verticalAlign=top;align=center;html=1;fontSize=12;fontStyle=0;aspect=fixed;pointerEvents=1;shape=mxgraph.aws4.sagemaker_model;fillColor=#EA6B66;strokeColor=#b85450;" vertex="1" parent="1">
          <mxGeometry x="433" y="748" width="54" height="54" as="geometry" />
        </mxCell>
        <mxCell id="JcJDtZIdfet0dapsfC1r-124" value="qa" style="rounded=0;whiteSpace=wrap;html=1;fillColor=#EA6B66;strokeColor=none;fontColor=#FFFFFF;" vertex="1" parent="1">
          <mxGeometry x="320" y="849" width="60" height="30" as="geometry" />
        </mxCell>
        <mxCell id="JcJDtZIdfet0dapsfC1r-125" value="" style="rounded=0;whiteSpace=wrap;html=1;strokeColor=none;" vertex="1" parent="1">
          <mxGeometry x="680" y="690" width="280" height="189" as="geometry" />
        </mxCell>
        <mxCell id="JcJDtZIdfet0dapsfC1r-126" value="" style="rounded=0;whiteSpace=wrap;html=1;dashed=1;dashPattern=8 8;" vertex="1" parent="1">
          <mxGeometry x="710" y="722" width="220" height="110" as="geometry" />
        </mxCell>
        <mxCell id="JcJDtZIdfet0dapsfC1r-127" value="" style="sketch=0;outlineConnect=0;dashed=0;verticalLabelPosition=bottom;verticalAlign=top;align=center;html=1;fontSize=12;fontStyle=0;aspect=fixed;pointerEvents=1;shape=mxgraph.aws4.sagemaker_model;fillColor=#97D077;strokeColor=#82b366;" vertex="1" parent="1">
          <mxGeometry x="790" y="748" width="54" height="54" as="geometry" />
        </mxCell>
        <mxCell id="JcJDtZIdfet0dapsfC1r-130" value="prod" style="rounded=0;whiteSpace=wrap;html=1;fillColor=#97D077;strokeColor=none;fontColor=#FFFFFF;" vertex="1" parent="1">
          <mxGeometry x="680" y="849" width="60" height="30" as="geometry" />
        </mxCell>
        <mxCell id="JcJDtZIdfet0dapsfC1r-131" value="部署模型" style="text;strokeColor=none;fillColor=none;html=1;fontSize=24;fontStyle=1;verticalAlign=middle;align=center;fontColor=#647687;" vertex="1" parent="1">
          <mxGeometry x="-30" y="600" width="100" height="40" as="geometry" />
        </mxCell>
        <mxCell id="JcJDtZIdfet0dapsfC1r-132" value="" style="endArrow=classic;html=1;rounded=0;" edge="1" parent="1">
          <mxGeometry width="50" height="50" relative="1" as="geometry">
            <mxPoint x="90" y="620" as="sourcePoint" />
            <mxPoint x="960" y="620" as="targetPoint" />
          </mxGeometry>
        </mxCell>
        <mxCell id="JcJDtZIdfet0dapsfC1r-133" value="" style="edgeStyle=elbowEdgeStyle;elbow=vertical;endArrow=classic;html=1;curved=0;rounded=0;endSize=8;startSize=8;entryX=0.455;entryY=0.025;entryDx=0;entryDy=0;dashed=1;dashPattern=8 8;exitX=0.2;exitY=0.018;exitDx=0;exitDy=0;exitPerimeter=0;entryPerimeter=0;" edge="1" parent="1" source="JcJDtZIdfet0dapsfC1r-114" target="JcJDtZIdfet0dapsfC1r-120">
          <mxGeometry width="50" height="50" relative="1" as="geometry">
            <mxPoint x="80" y="710" as="sourcePoint" />
            <mxPoint x="130" y="660" as="targetPoint" />
            <Array as="points">
              <mxPoint x="240" y="670" />
            </Array>
          </mxGeometry>
        </mxCell>
        <mxCell id="JcJDtZIdfet0dapsfC1r-134" value="" style="edgeStyle=elbowEdgeStyle;elbow=vertical;endArrow=classic;html=1;curved=0;rounded=0;endSize=8;startSize=8;dashed=1;dashPattern=8 8;exitX=0.5;exitY=0;exitDx=0;exitDy=0;" edge="1" parent="1" source="JcJDtZIdfet0dapsfC1r-120" target="JcJDtZIdfet0dapsfC1r-126">
          <mxGeometry width="50" height="50" relative="1" as="geometry">
            <mxPoint x="417" y="710" as="sourcePoint" />
            <mxPoint x="550" y="660" as="targetPoint" />
            <Array as="points">
              <mxPoint x="530" y="670" />
            </Array>
          </mxGeometry>
        </mxCell>
        <mxCell id="JcJDtZIdfet0dapsfC1r-135" value="" style="sketch=0;outlineConnect=0;fillColor=#647687;strokeColor=#314354;dashed=0;verticalLabelPosition=bottom;verticalAlign=top;align=center;html=1;fontSize=12;fontStyle=0;aspect=fixed;pointerEvents=1;shape=mxgraph.aws4.source_code;fontColor=#ffffff;" vertex="1" parent="1">
          <mxGeometry x="982" y="811.25" width="21.74" height="29.75" as="geometry" />
        </mxCell>
        <mxCell id="JcJDtZIdfet0dapsfC1r-136" value="" style="sketch=0;outlineConnect=0;dashed=0;verticalLabelPosition=bottom;verticalAlign=top;align=center;html=1;fontSize=12;fontStyle=0;aspect=fixed;pointerEvents=1;shape=mxgraph.aws4.sagemaker_model;fillColor=#647687;strokeColor=#314354;fontColor=#ffffff;" vertex="1" parent="1">
          <mxGeometry x="980" y="853" width="26" height="26" as="geometry" />
        </mxCell>
        <mxCell id="JcJDtZIdfet0dapsfC1r-137" value="&lt;font style=&quot;font-size: 12px;&quot;&gt;训练代码&lt;/font&gt;" style="text;strokeColor=none;fillColor=none;html=1;fontSize=24;fontStyle=1;verticalAlign=middle;align=center;fontColor=#647687;" vertex="1" parent="1">
          <mxGeometry x="1007" y="811.75" width="60" height="29.25" as="geometry" />
        </mxCell>
        <mxCell id="JcJDtZIdfet0dapsfC1r-138" value="模型" style="text;strokeColor=none;fillColor=none;html=1;fontSize=12;fontStyle=1;verticalAlign=middle;align=center;fontColor=#647687;" vertex="1" parent="1">
          <mxGeometry x="1006" y="853" width="58.26" height="26" as="geometry" />
        </mxCell>
        <mxCell id="JcJDtZIdfet0dapsfC1r-139" value="镜像" style="text;strokeColor=none;fillColor=none;html=1;fontSize=12;fontStyle=1;verticalAlign=middle;align=center;fontColor=#647687;" vertex="1" parent="1">
          <mxGeometry x="1008.49" y="1315" width="58.26" height="26" as="geometry" />
        </mxCell>
        <mxCell id="JcJDtZIdfet0dapsfC1r-140" value="" style="sketch=0;outlineConnect=0;fontColor=#ffffff;fillColor=#647687;strokeColor=#314354;dashed=0;verticalLabelPosition=bottom;verticalAlign=top;align=center;html=1;fontSize=12;fontStyle=0;aspect=fixed;pointerEvents=1;shape=mxgraph.aws4.documents2;" vertex="1" parent="1">
          <mxGeometry x="268.46" y="1175" width="51.54" height="60" as="geometry" />
        </mxCell>
        <mxCell id="JcJDtZIdfet0dapsfC1r-141" value="" style="sketch=0;outlineConnect=0;fontColor=#ffffff;fillColor=#647687;strokeColor=#314354;dashed=0;verticalLabelPosition=bottom;verticalAlign=top;align=center;html=1;fontSize=12;fontStyle=0;aspect=fixed;pointerEvents=1;shape=mxgraph.aws4.json_script;" vertex="1" parent="1">
          <mxGeometry x="10.730000000000004" y="1097" width="38.73" height="53" as="geometry" />
        </mxCell>
        <mxCell id="JcJDtZIdfet0dapsfC1r-142" value="" style="endArrow=classic;html=1;rounded=0;" edge="1" parent="1">
          <mxGeometry width="50" height="50" relative="1" as="geometry">
            <mxPoint x="70" y="1124" as="sourcePoint" />
            <mxPoint x="110" y="1124" as="targetPoint" />
          </mxGeometry>
        </mxCell>
        <mxCell id="JcJDtZIdfet0dapsfC1r-143" value="" style="sketch=0;outlineConnect=0;fontColor=#ffffff;fillColor=#EA6B66;strokeColor=#314354;dashed=0;verticalLabelPosition=bottom;verticalAlign=top;align=center;html=1;fontSize=12;fontStyle=0;aspect=fixed;pointerEvents=1;shape=mxgraph.aws4.documents2;" vertex="1" parent="1">
          <mxGeometry x="443" y="1145" width="51.54" height="60" as="geometry" />
        </mxCell>
        <mxCell id="JcJDtZIdfet0dapsfC1r-144" value="" style="rounded=0;whiteSpace=wrap;html=1;strokeColor=none;" vertex="1" parent="1">
          <mxGeometry x="-40" y="1320" width="990" height="109" as="geometry" />
        </mxCell>
        <mxCell id="JcJDtZIdfet0dapsfC1r-145" value="data" style="rounded=0;whiteSpace=wrap;html=1;fillColor=#66B2FF;strokeColor=none;fontColor=#FFFFFF;" vertex="1" parent="1">
          <mxGeometry x="-40" y="1399" width="60" height="30" as="geometry" />
        </mxCell>
        <mxCell id="JcJDtZIdfet0dapsfC1r-147" value="" style="sketch=0;outlineConnect=0;fontColor=#ffffff;fillColor=#97D077;strokeColor=#314354;dashed=0;verticalLabelPosition=bottom;verticalAlign=top;align=center;html=1;fontSize=12;fontStyle=0;aspect=fixed;pointerEvents=1;shape=mxgraph.aws4.documents2;" vertex="1" parent="1">
          <mxGeometry x="753" y="1147" width="51.54" height="60" as="geometry" />
        </mxCell>
        <mxCell id="JcJDtZIdfet0dapsfC1r-148" value="" style="sketch=0;outlineConnect=0;fontColor=#ffffff;fillColor=#647687;strokeColor=#314354;dashed=0;verticalLabelPosition=bottom;verticalAlign=top;align=center;html=1;fontSize=12;fontStyle=0;aspect=fixed;pointerEvents=1;shape=mxgraph.aws4.container_2;" vertex="1" parent="1">
          <mxGeometry x="130" y="1106.5" width="59.61" height="38.5" as="geometry" />
        </mxCell>
        <mxCell id="JcJDtZIdfet0dapsfC1r-149" value="" style="sketch=0;outlineConnect=0;fontColor=#ffffff;fillColor=#EA6B66;strokeColor=#314354;dashed=0;verticalLabelPosition=bottom;verticalAlign=top;align=center;html=1;fontSize=12;fontStyle=0;aspect=fixed;pointerEvents=1;shape=mxgraph.aws4.container_2;" vertex="1" parent="1">
          <mxGeometry x="520" y="1154" width="59.61" height="38.5" as="geometry" />
        </mxCell>
        <mxCell id="JcJDtZIdfet0dapsfC1r-150" value="" style="sketch=0;outlineConnect=0;fontColor=#ffffff;fillColor=#97D077;strokeColor=#3A5431;dashed=0;verticalLabelPosition=bottom;verticalAlign=top;align=center;html=1;fontSize=12;fontStyle=0;aspect=fixed;pointerEvents=1;shape=mxgraph.aws4.container_2;" vertex="1" parent="1">
          <mxGeometry x="840" y="1157.75" width="59.61" height="38.5" as="geometry" />
        </mxCell>
        <mxCell id="JcJDtZIdfet0dapsfC1r-151" value="" style="edgeStyle=elbowEdgeStyle;elbow=vertical;endArrow=classic;html=1;curved=0;rounded=0;endSize=8;startSize=8;dashed=1;dashPattern=8 8;" edge="1" parent="1" target="JcJDtZIdfet0dapsfC1r-143">
          <mxGeometry width="50" height="50" relative="1" as="geometry">
            <mxPoint x="300" y="1170" as="sourcePoint" />
            <mxPoint x="350" y="1120" as="targetPoint" />
            <Array as="points">
              <mxPoint x="390" y="1100" />
            </Array>
          </mxGeometry>
        </mxCell>
        <mxCell id="JcJDtZIdfet0dapsfC1r-153" value="" style="edgeStyle=elbowEdgeStyle;elbow=vertical;endArrow=classic;html=1;curved=0;rounded=0;endSize=8;startSize=8;dashed=1;dashPattern=8 8;" edge="1" parent="1" target="JcJDtZIdfet0dapsfC1r-147">
          <mxGeometry width="50" height="50" relative="1" as="geometry">
            <mxPoint x="474" y="1150" as="sourcePoint" />
            <mxPoint x="643" y="1125" as="targetPoint" />
            <Array as="points">
              <mxPoint x="630" y="1060" />
            </Array>
          </mxGeometry>
        </mxCell>
        <mxCell id="JcJDtZIdfet0dapsfC1r-159" value="" style="rounded=0;whiteSpace=wrap;html=1;dashed=1;dashPattern=8 8;" vertex="1" parent="1">
          <mxGeometry x="49.46" y="1330" width="150.54" height="90" as="geometry" />
        </mxCell>
        <mxCell id="JcJDtZIdfet0dapsfC1r-154" value="" style="sketch=0;outlineConnect=0;fontColor=#ffffff;fillColor=#647687;strokeColor=#314354;dashed=0;verticalLabelPosition=bottom;verticalAlign=top;align=center;html=1;fontSize=12;fontStyle=0;aspect=fixed;pointerEvents=1;shape=mxgraph.aws4.container_2;" vertex="1" parent="1">
          <mxGeometry x="980" y="1318" width="30.97" height="20" as="geometry" />
        </mxCell>
        <mxCell id="JcJDtZIdfet0dapsfC1r-155" value="" style="sketch=0;outlineConnect=0;fontColor=#ffffff;fillColor=#647687;strokeColor=#314354;dashed=0;verticalLabelPosition=bottom;verticalAlign=top;align=center;html=1;fontSize=12;fontStyle=0;aspect=fixed;pointerEvents=1;shape=mxgraph.aws4.json_script;" vertex="1" parent="1">
          <mxGeometry x="983.63" y="1200" width="19.73" height="27" as="geometry" />
        </mxCell>
        <mxCell id="JcJDtZIdfet0dapsfC1r-156" value="&lt;font style=&quot;font-size: 12px;&quot;&gt;Agent代码&lt;/font&gt;" style="text;strokeColor=none;fillColor=none;html=1;fontSize=24;fontStyle=1;verticalAlign=middle;align=center;fontColor=#647687;" vertex="1" parent="1">
          <mxGeometry x="1010.97" y="1200" width="60" height="29.25" as="geometry" />
        </mxCell>
        <mxCell id="JcJDtZIdfet0dapsfC1r-158" value="" style="sketch=0;outlineConnect=0;fontColor=#ffffff;fillColor=#647687;strokeColor=#314354;dashed=0;verticalLabelPosition=bottom;verticalAlign=top;align=center;html=1;fontSize=12;fontStyle=0;aspect=fixed;pointerEvents=1;shape=mxgraph.aws4.generic_database;" vertex="1" parent="1">
          <mxGeometry x="140.36" y="1370.0000000000002" width="33.28" height="44" as="geometry" />
        </mxCell>
        <mxCell id="JcJDtZIdfet0dapsfC1r-160" value="" style="sketch=0;outlineConnect=0;fontColor=#ffffff;fillColor=#647687;strokeColor=#314354;dashed=0;verticalLabelPosition=bottom;verticalAlign=top;align=center;html=1;fontSize=12;fontStyle=0;aspect=fixed;pointerEvents=1;shape=mxgraph.aws4.forums;" vertex="1" parent="1">
          <mxGeometry x="70" y="1370.0000000000002" width="44.13" height="43" as="geometry" />
        </mxCell>
        <mxCell id="JcJDtZIdfet0dapsfC1r-162" value="" style="edgeStyle=segmentEdgeStyle;endArrow=classic;html=1;curved=0;rounded=0;endSize=8;startSize=8;entryX=0.5;entryY=1;entryDx=0;entryDy=0;exitX=0.46;exitY=0.022;exitDx=0;exitDy=0;exitPerimeter=0;" edge="1" parent="1" source="JcJDtZIdfet0dapsfC1r-165">
          <mxGeometry width="50" height="50" relative="1" as="geometry">
            <mxPoint x="124.5" y="1320" as="sourcePoint" />
            <mxPoint x="124.5" y="1279" as="targetPoint" />
          </mxGeometry>
        </mxCell>
        <mxCell id="JcJDtZIdfet0dapsfC1r-163" value="" style="edgeStyle=segmentEdgeStyle;endArrow=classic;html=1;curved=0;rounded=0;endSize=8;startSize=8;entryX=0.5;entryY=1;entryDx=0;entryDy=0;exitX=0.5;exitY=0;exitDx=0;exitDy=0;" edge="1" parent="1" source="JcJDtZIdfet0dapsfC1r-169">
          <mxGeometry width="50" height="50" relative="1" as="geometry">
            <mxPoint x="516.5" y="1320" as="sourcePoint" />
            <mxPoint x="516.5" y="1279" as="targetPoint" />
          </mxGeometry>
        </mxCell>
        <mxCell id="JcJDtZIdfet0dapsfC1r-164" value="" style="edgeStyle=segmentEdgeStyle;endArrow=classic;html=1;curved=0;rounded=0;endSize=8;startSize=8;entryX=0.5;entryY=1;entryDx=0;entryDy=0;exitX=0.5;exitY=0;exitDx=0;exitDy=0;" edge="1" parent="1" source="JcJDtZIdfet0dapsfC1r-173">
          <mxGeometry width="50" height="50" relative="1" as="geometry">
            <mxPoint x="844" y="1322" as="sourcePoint" />
            <mxPoint x="844" y="1281" as="targetPoint" />
          </mxGeometry>
        </mxCell>
        <mxCell id="JcJDtZIdfet0dapsfC1r-165" value="dev" style="rounded=0;whiteSpace=wrap;html=1;fillColor=#647687;fontColor=#ffffff;strokeColor=none;" vertex="1" parent="1">
          <mxGeometry x="49.46" y="1330" width="150.54" height="30" as="geometry" />
        </mxCell>
        <mxCell id="JcJDtZIdfet0dapsfC1r-166" value="" style="rounded=0;whiteSpace=wrap;html=1;dashed=1;dashPattern=8 8;" vertex="1" parent="1">
          <mxGeometry x="437.72999999999996" y="1330" width="150.54" height="90" as="geometry" />
        </mxCell>
        <mxCell id="JcJDtZIdfet0dapsfC1r-167" value="" style="sketch=0;outlineConnect=0;fontColor=#ffffff;fillColor=#EA6B66;strokeColor=#314354;dashed=0;verticalLabelPosition=bottom;verticalAlign=top;align=center;html=1;fontSize=12;fontStyle=0;aspect=fixed;pointerEvents=1;shape=mxgraph.aws4.generic_database;" vertex="1" parent="1">
          <mxGeometry x="528.63" y="1370.0000000000002" width="33.28" height="44" as="geometry" />
        </mxCell>
        <mxCell id="JcJDtZIdfet0dapsfC1r-168" value="" style="sketch=0;outlineConnect=0;fontColor=#ffffff;fillColor=#EA6B66;strokeColor=#314354;dashed=0;verticalLabelPosition=bottom;verticalAlign=top;align=center;html=1;fontSize=12;fontStyle=0;aspect=fixed;pointerEvents=1;shape=mxgraph.aws4.forums;" vertex="1" parent="1">
          <mxGeometry x="458.27" y="1370.0000000000002" width="44.13" height="43" as="geometry" />
        </mxCell>
        <mxCell id="JcJDtZIdfet0dapsfC1r-169" value="qa" style="rounded=0;whiteSpace=wrap;html=1;fillColor=#EA6B66;fontColor=#ffffff;strokeColor=none;" vertex="1" parent="1">
          <mxGeometry x="437.72999999999996" y="1330" width="150.54" height="30" as="geometry" />
        </mxCell>
        <mxCell id="JcJDtZIdfet0dapsfC1r-170" value="" style="rounded=0;whiteSpace=wrap;html=1;dashed=1;dashPattern=8 8;" vertex="1" parent="1">
          <mxGeometry x="772.46" y="1330" width="150.54" height="90" as="geometry" />
        </mxCell>
        <mxCell id="JcJDtZIdfet0dapsfC1r-171" value="" style="sketch=0;outlineConnect=0;fontColor=#ffffff;fillColor=#97D077;strokeColor=#314354;dashed=0;verticalLabelPosition=bottom;verticalAlign=top;align=center;html=1;fontSize=12;fontStyle=0;aspect=fixed;pointerEvents=1;shape=mxgraph.aws4.generic_database;" vertex="1" parent="1">
          <mxGeometry x="863.36" y="1370.0000000000002" width="33.28" height="44" as="geometry" />
        </mxCell>
        <mxCell id="JcJDtZIdfet0dapsfC1r-172" value="" style="sketch=0;outlineConnect=0;fontColor=#ffffff;fillColor=#97D077;strokeColor=#314354;dashed=0;verticalLabelPosition=bottom;verticalAlign=top;align=center;html=1;fontSize=12;fontStyle=0;aspect=fixed;pointerEvents=1;shape=mxgraph.aws4.forums;" vertex="1" parent="1">
          <mxGeometry x="793" y="1370.0000000000002" width="44.13" height="43" as="geometry" />
        </mxCell>
        <mxCell id="JcJDtZIdfet0dapsfC1r-173" value="prod" style="rounded=0;whiteSpace=wrap;html=1;fillColor=#97D077;fontColor=#ffffff;strokeColor=none;" vertex="1" parent="1">
          <mxGeometry x="772.46" y="1330" width="150.54" height="30" as="geometry" />
        </mxCell>
        <mxCell id="JcJDtZIdfet0dapsfC1r-175" value="" style="sketch=0;outlineConnect=0;fontColor=#ffffff;fillColor=#647687;strokeColor=#314354;dashed=0;verticalLabelPosition=bottom;verticalAlign=top;align=center;html=1;fontSize=12;fontStyle=0;aspect=fixed;pointerEvents=1;shape=mxgraph.aws4.forums;" vertex="1" parent="1">
          <mxGeometry x="981.75" y="1355" width="30.79" height="30" as="geometry" />
        </mxCell>
        <mxCell id="JcJDtZIdfet0dapsfC1r-176" value="&lt;span style=&quot;font-size: 12px;&quot;&gt;prompt&lt;/span&gt;" style="text;strokeColor=none;fillColor=none;html=1;fontSize=24;fontStyle=1;verticalAlign=middle;align=center;fontColor=#647687;" vertex="1" parent="1">
          <mxGeometry x="1010.97" y="1345.75" width="60" height="29.25" as="geometry" />
        </mxCell>
        <mxCell id="JcJDtZIdfet0dapsfC1r-177" value="" style="sketch=0;outlineConnect=0;fontColor=#ffffff;fillColor=#647687;strokeColor=#314354;dashed=0;verticalLabelPosition=bottom;verticalAlign=top;align=center;html=1;fontSize=12;fontStyle=0;aspect=fixed;pointerEvents=1;shape=mxgraph.aws4.generic_database;" vertex="1" parent="1">
          <mxGeometry x="988.28" y="1399" width="22.69" height="30" as="geometry" />
        </mxCell>
        <mxCell id="JcJDtZIdfet0dapsfC1r-179" value="&lt;span style=&quot;font-size: 12px;&quot;&gt;Vector&lt;/span&gt;" style="text;strokeColor=none;fillColor=none;html=1;fontSize=24;fontStyle=1;verticalAlign=middle;align=center;fontColor=#647687;" vertex="1" parent="1">
          <mxGeometry x="1010.97" y="1392.75" width="60" height="29.25" as="geometry" />
        </mxCell>
      </root>
    </mxGraphModel>
  </diagram>
</mxfile>
